<?xml version="1.0" encoding="utf-8"?>
<!-- Generator: Adobe Illustrator 19.0.0, SVG Export Plug-In . SVG Version: 6.00 Build 0)  -->
<svg version="1.1" id="Layer_1" xmlns="http://www.w3.org/2000/svg" xmlns:xlink="http://www.w3.org/1999/xlink" x="0px" y="0px"
	 viewBox="-124 176 250 150" style="enable-background:new -124 176 250 150;" xml:space="preserve">
<style type="text/css">
	.st0{fill:#991A21;}
	.st1{fill:#403D51;}
</style>
<path id="XMLID_610_" class="st0" d="M7.6,208.6H6.7c-1.2,0-2.4,0.1-3.5,0.4c-2.1,0.4-3.4,2.3-3,4.3c0.4,1.8,1.9,3.1,3.7,3.1
	c0.2,0,0.5,0,0.6,0c0.7-0.1,1.4-0.2,2.2-0.2h0.8c2.1,0,3.7-1.7,3.7-3.7C11.3,210.2,9.6,208.6,7.6,208.6L7.6,208.6z"/>
<path id="XMLID_607_" class="st0" d="M-3.9,215.6c-1.6-1.3-4-1-5.3,0.6c-1,1.2-1.8,2.5-2.4,3.9c-0.8,1.9-0.1,4.1,1.8,5
	c0.5,0.2,1.1,0.4,1.6,0.4c1.4,0,2.8-0.8,3.4-2.2c0.4-0.8,1-1.7,1.6-2.4C-2,219.3-2.3,216.9-3.9,215.6L-3.9,215.6z"/>
<path id="XMLID_604_" class="st0" d="M5.3,241.5c-1-0.1-1.9-0.4-2.8-0.6c-1.9-0.7-4.1,0.4-4.8,2.3S-2,247.3,0,248
	c1.4,0.5,3,0.8,4.5,1c0.1,0,0.2,0,0.4,0c1.9,0,3.5-1.4,3.7-3.4C8.9,243.6,7.3,241.8,5.3,241.5L5.3,241.5z"/>
<path id="XMLID_601_" class="st0" d="M8.8,279.6H5c-2.1,0-3.7,1.7-3.7,3.7s1.7,3.7,3.7,3.7h3.7c2.1,0,3.7-1.7,3.7-3.7
	S10.8,279.6,8.8,279.6L8.8,279.6z"/>
<path id="XMLID_598_" class="st0" d="M-4.5,235.1c-0.5-0.8-0.8-1.7-1.1-2.7c-0.6-1.9-2.7-3.1-4.7-2.5c-2.1,0.6-3.1,2.7-2.5,4.7
	c0.5,1.4,1,2.9,1.8,4.2c0.7,1.2,1.9,1.9,3.3,1.9c0.6,0,1.2-0.1,1.8-0.5C-4.1,239.1-3.4,236.9-4.5,235.1L-4.5,235.1z"/>
<path id="XMLID_595_" class="st0" d="M36.4,241.6h-3.7c-2.1,0-3.7,1.7-3.7,3.7c0,2.1,1.7,3.7,3.7,3.7h3.7c2.1,0,3.7-1.7,3.7-3.7
	C40.2,243.3,38.5,241.6,36.4,241.6L36.4,241.6z"/>
<path id="XMLID_592_" class="st0" d="M59.7,282.8c-0.2-2.1-2.1-3.5-4.1-3.4c-0.5,0-1.1,0.1-1.6,0.1h-1.7c-2.1,0-3.7,1.7-3.7,3.7
	s1.7,3.7,3.7,3.7h1.7c0.8,0,1.6,0,2.4-0.1C58.5,286.7,60,284.9,59.7,282.8L59.7,282.8z"/>
<path id="XMLID_589_" class="st0" d="M40.3,279.6h-3.7c-2.1,0-3.7,1.7-3.7,3.7s1.7,3.7,3.7,3.7h3.7c2.1,0,3.7-1.7,3.7-3.7
	S42.3,279.6,40.3,279.6L40.3,279.6z"/>
<path id="XMLID_586_" class="st0" d="M52.2,241.6h-3.7c-2.1,0-3.7,1.7-3.7,3.7c0,2.1,1.7,3.7,3.7,3.7h3.7c2.1,0,3.7-1.7,3.7-3.7
	C56,243.3,54.3,241.6,52.2,241.6L52.2,241.6z"/>
<path id="XMLID_583_" class="st0" d="M69.3,247.6c-1.1-1-2.3-1.9-3.6-2.7c-1.8-1.1-4.1-0.5-5.2,1.3c-1.1,1.8-0.5,4.1,1.3,5.2
	c0.8,0.5,1.7,1.1,2.4,1.8c0.7,0.6,1.6,1,2.5,1s2.1-0.4,2.8-1.2C71,251.3,70.8,248.9,69.3,247.6L69.3,247.6z"/>
<path id="XMLID_580_" class="st0" d="M71.6,272.6c-1.7-1.2-4-0.8-5.2,0.8c-0.6,0.8-1.3,1.6-2.1,2.3c-1.6,1.4-1.7,3.7-0.2,5.3
	c0.7,0.8,1.8,1.2,2.8,1.2c0.8,0,1.8-0.4,2.5-1c1.1-1,2.2-2.2,3-3.4C73.6,276.1,73.3,273.8,71.6,272.6L71.6,272.6z"/>
<path id="XMLID_577_" class="st0" d="M23.4,208.6h-3.7c-2.1,0-3.7,1.7-3.7,3.7c0,2.1,1.7,3.7,3.7,3.7h3.7c2.1,0,3.7-1.7,3.7-3.7
	C27.1,210.2,25.4,208.6,23.4,208.6L23.4,208.6z"/>
<path id="XMLID_574_" class="st0" d="M76.3,259.9c-0.4-2.1-2.4-3.4-4.5-2.9c-2.1,0.4-3.4,2.4-2.9,4.5c0.2,1,0.2,1.9,0.2,3
	c0,2.1,1.7,3.7,3.7,3.7l0,0c2.1,0,3.7-1.7,3.7-3.7C76.8,262.8,76.5,261.3,76.3,259.9L76.3,259.9z"/>
<path id="XMLID_571_" class="st0" d="M24.5,279.6h-3.7c-2.1,0-3.7,1.7-3.7,3.7s1.7,3.7,3.7,3.7h3.7c2.1,0,3.7-1.7,3.7-3.7
	S26.5,279.6,24.5,279.6L24.5,279.6z"/>
<path id="XMLID_568_" class="st0" d="M20.7,241.6H17c-2.1,0-3.7,1.7-3.7,3.7c0,2.1,1.7,3.7,3.7,3.7h3.7c2.1,0,3.7-1.7,3.7-3.7
	C24.5,243.3,22.8,241.6,20.7,241.6L20.7,241.6z"/>
<path id="XMLID_563_" class="st1" d="M-12.4,255.4h-12.3v-7.1c0-3.7-3-6.8-6.8-6.8h-20.4c-3.7,0-6.8,3-6.8,6.8v7.1h-12.3
	c-2.1,0-3.7,1.7-3.7,3.7v13c0,2.2,0.7,4.2,2.1,5.8v22.2c0,3.6,2.9,6.5,6.5,6.5h49c3.6,0,6.5-2.9,6.5-6.5V278
	c1.3-1.7,2.1-3.6,2.1-5.8v-13C-8.5,257.1-10.2,255.4-12.4,255.4L-12.4,255.4z M-51,249.1h18.8v6.3H-51V249.1z M-16.1,272.2
	c0,0.6-0.4,1-0.5,1.2c-0.2,0.2-0.6,0.5-1.2,0.5l0,0H-27l0,0c-2.1,0-3.7,1.7-3.7,3.7c0,2.1,1.7,3.7,3.7,3.7h8.8v17.8h-47v-17.8h9.1
	c2.1,0,3.7-1.7,3.7-3.7s-1.7-3.7-3.7-3.7h-9.4c-1,0-1.7-0.7-1.7-1.7v-9.3h51.1L-16.1,272.2L-16.1,272.2z"/>
<path id="XMLID_560_" class="st1" d="M-38.9,275c-0.7-0.7-1.7-1.1-2.7-1.1c-1,0-1.9,0.4-2.7,1.1c-0.7,0.7-1.1,1.7-1.1,2.7
	s0.4,1.9,1.1,2.7c0.7,0.7,1.7,1.1,2.7,1.1c1,0,1.9-0.4,2.7-1.1s1.1-1.7,1.1-2.7S-38.2,275.7-38.9,275L-38.9,275z"/>
<path id="XMLID_556_" class="st1" d="M63.7,194.8H42.3c-2.1,0-3.7,1.7-3.7,3.7v28.7c0,2.1,1.7,3.7,3.7,3.7s3.7-1.7,3.7-3.7v-7.4
	h17.6c2.1,0,3.7-1.7,3.7-3.7v-17.5C67.5,196.5,65.8,194.8,63.7,194.8L63.7,194.8z M60,212.5H46.1v-10.1H60V212.5z"/>
</svg>
