<?xml version="1.0" encoding="utf-8"?>
<!-- Generator: Adobe Illustrator 19.0.0, SVG Export Plug-In . SVG Version: 6.00 Build 0)  -->
<svg version="1.1" id="Layer_1" xmlns="http://www.w3.org/2000/svg" xmlns:xlink="http://www.w3.org/1999/xlink" x="0px" y="0px"
	 viewBox="-124 126 250 250" style="enable-background:new -124 126 250 250;" xml:space="preserve">
<style type="text/css">
	.st0{fill:#991A21;}
	.st1{fill:#403D51;}
</style>
<path id="XMLID_228_" class="st0" d="M49.5,302.9c-9.3,0-16.9,7.6-16.9,16.9s7.6,16.9,16.9,16.9c9.3,0,16.9-7.6,16.9-16.9
	S58.8,302.9,49.5,302.9L49.5,302.9z M57.9,319.7c0,4.7-3.8,8.5-8.5,8.5s-8.5-3.8-8.5-8.5c0-4.7,3.8-8.5,8.5-8.5
	C54.5,311.3,58.4,315.1,57.9,319.7L57.9,319.7z"/>
<path id="XMLID_224_" class="st0" d="M-9.6,302.9c-9.3,0-16.9,7.6-16.9,16.9s7.6,16.9,16.9,16.9s16.9-7.6,16.9-16.9
	S-0.3,302.9-9.6,302.9L-9.6,302.9z M-9.6,328.2c-4.7,0-8.5-3.8-8.5-8.5c0-4.7,3.8-8.5,8.5-8.5s8.5,3.8,8.5,8.5
	C-1.1,324.4-4.9,328.2-9.6,328.2L-9.6,328.2z"/>
<path id="XMLID_219_" class="st1" d="M62.6,228.1c1.5-4.1,2.4-8.5,2.5-13.1c0.5-21.4-16.1-39.7-37.4-41.2
	c-23.6-1.6-43.2,17-43.2,40.2c0,5,0.9,9.7,2.5,14.1h-25.5c-2.4,0-4.6-1.6-5.2-3.9l-13.5-46.1c-0.7-2.3-2.8-3.9-5.2-3.9h-35.2v8h29
	c2.3,0,4.4,1.5,5.2,3.7l35,104.4c0.7,2.2,2.8,3.7,5.2,3.7h86.4c2,0,3.9-1.1,4.8-2.9l28.5-55c1.9-3.6-0.8-8-4.8-8
	C91.7,228.1,62.6,228.1,62.6,228.1z M24.9,182.2c17.6,0,31.8,14.2,31.8,31.8s-14.2,31.8-31.8,31.8S-6.9,231.6-6.9,214
	C-6.9,196.5,7.3,182.2,24.9,182.2L24.9,182.2z M59.3,285.7h-78.7c-1.2,0-2.2-0.7-2.6-1.8l-15.7-43.5c-0.7-1.8,0.6-3.8,2.6-3.8h26.6
	c7.2,10.7,19.5,17.7,33.4,17.7c13.9,0,26.1-7,33.4-17.7h25c2.1,0,3.5,2.3,2.5,4.2l-23.9,43.5C61.3,285.1,60.3,285.7,59.3,285.7z"/>
<path id="XMLID_213_" class="st0" d="M20.9,233.2h8.4v-14.7h14.8V210H29.3v-15.1h-8.4V210H5.7v8.5h15.2V233.2z"/>
</svg>
