<?xml version="1.0" encoding="utf-8"?>
<!-- Generator: Adobe Illustrator 19.0.0, SVG Export Plug-In . SVG Version: 6.00 Build 0)  -->
<svg version="1.1" id="Layer_1" xmlns="http://www.w3.org/2000/svg" xmlns:xlink="http://www.w3.org/1999/xlink" x="0px" y="0px"
	 viewBox="-124 126 250 250" style="enable-background:new -124 126 250 250;" xml:space="preserve">
<style type="text/css">
	.st0{fill:#403D51;}
	.st1{fill:#991A21;}
</style>
<g id="XMLID_4_">
	<path id="XMLID_35_" class="st0" d="M66.2,326.6c-0.6-0.6-1.4-0.9-2.2-0.9s-1.7,0.3-2.2,0.9c-0.6,0.6-0.9,1.4-0.9,2.2
		c0,0.8,0.3,1.7,0.9,2.2c0.6,0.6,1.4,0.9,2.2,0.9s1.7-0.3,2.2-0.9c0.6-0.6,0.9-1.4,0.9-2.2C67.1,328,66.8,327.2,66.2,326.6
		L66.2,326.6z"/>
	<path id="XMLID_32_" class="st0" d="M5.7,169.8c-33.7,0-61.2,27.3-61.4,61L-73.3,272c-0.4,1-0.3,2.1,0.3,3s1.6,1.4,2.6,1.4h20.6
		v14.9c0,10.4,8.4,18.8,18.8,18.8h10.7c3.3,0,6,2.7,6,6v12.7c0,1.7,1.4,3.2,3.2,3.2c1.7,0,3.2-1.4,3.2-3.2v-12.7
		c0-6.8-5.5-12.4-12.4-12.4H-31c-6.9,0-12.4-5.6-12.4-12.4v-18.1c0-1.7-1.4-3.2-3.2-3.2h-19l16-37.4c0.2-0.4,0.3-0.8,0.3-1.2v-0.3
		c0-30.3,24.7-55,55-55s55,24.7,55,55v85c0,1.7,1.4,3.2,3.2,3.2s3.2-1.4,3.2-3.2v-85C67.1,197.3,39.6,169.8,5.7,169.8L5.7,169.8z"/>
	<path id="XMLID_27_" class="st0" d="M18.6,200.4h-0.2c-1.8-0.1-3.3,1.2-3.4,2.9c-0.1,1.7,1.2,3.3,2.9,3.4h0.2c0.1,0,0.2,0,0.2,0
		c1.6,0,3-1.3,3.2-2.9C21.6,202,20.3,200.5,18.6,200.4L18.6,200.4z"/>
	<path id="XMLID_24_" class="st1" d="M44.3,226.3c-0.7-9.8-6.6-18.6-15.3-23c-1.6-0.8-3.5-0.2-4.3,1.4c-0.8,1.6-0.2,3.5,1.4,4.3
		c6.8,3.4,11.4,10.2,11.9,17.8c0.4,5.2-1.2,10.4-4.3,14.6c-2.9,3.8-7.1,6.6-11.7,7.8c-1.4,0.4-2.4,1.6-2.4,3.1V265
		c0,1.7-1.4,3.2-3.2,3.2c-1.7,0-3.2-1.4-3.2-3.2v-13.7c0-3.9,2.7-7.2,6.5-8.1c7.4-1.7,12.4-8.4,11.9-16c-0.5-7.5-6.6-13.6-14.1-14.1
		c-4.3-0.3-8.4,1.1-11.5,4.1c-3.1,2.9-4.9,6.9-4.9,11.2c0,1.7-1.4,3.2-3.2,3.2c-1.7,0-3.2-1.4-3.2-3.2c0-6,2.5-11.7,6.9-15.8
		c2-1.8,4.2-3.3,6.6-4.2c1.6-0.7,2.4-2.5,1.7-4.1s-2.5-2.4-4.1-1.7c-3.1,1.3-6,3.1-8.6,5.5c-5.6,5.3-8.9,12.7-8.9,20.4
		c0,5.2,4.3,9.5,9.5,9.5s9.5-4.3,9.5-9.5c0-2.5,1-4.8,2.8-6.5c1.8-1.7,4.2-2.6,6.7-2.4c4.4,0.3,8,3.9,8.3,8.3
		c0.3,4.5-2.6,8.4-6.9,9.4c-6.8,1.5-11.5,7.4-11.5,14.3v13.7c0,5.2,4.3,9.5,9.5,9.5s9.5-4.3,9.5-9.5v-10.4c5-1.8,9.5-5.1,12.8-9.4
		C42.8,239.7,44.8,233,44.3,226.3L44.3,226.3z"/>
	<path id="XMLID_20_" class="st1" d="M16.4,278.8c-5.2,0-9.5,4.3-9.5,9.5c0,5.2,4.3,9.5,9.5,9.5s9.5-4.3,9.5-9.5
		C25.9,283,21.7,278.8,16.4,278.8L16.4,278.8z M16.4,291.4c-1.7,0-3.2-1.4-3.2-3.2c0-1.7,1.4-3.2,3.2-3.2c1.7,0,3.2,1.4,3.2,3.2
		C19.6,290,18.2,291.4,16.4,291.4L16.4,291.4z"/>
</g>
</svg>
