<?xml version="1.0" encoding="utf-8"?>
<!-- Generator: Adobe Illustrator 19.0.0, SVG Export Plug-In . SVG Version: 6.00 Build 0)  -->
<svg version="1.1" id="Layer_1" xmlns="http://www.w3.org/2000/svg" xmlns:xlink="http://www.w3.org/1999/xlink" x="0px" y="0px"
	 viewBox="100 -100 250 250" style="enable-background:new 100 -100 250 250;" xml:space="preserve">
<g>
	<path d="M281.6,114.2c-7.3,0-16.2-1.8-26-5.5c-21.4-8.1-44.6-24-65.5-44.8C169.3,43,153.4,19.7,145.3-1.6
		c-7.3-19.4-7.4-35.4-0.1-42.7c1.1-1.1,2.1-2.2,3.2-3.3c6.7-7,14.3-15,24.2-14.5c6.9,0.3,13.5,4.6,20.4,13
		c20.2,25.1,11.1,34,0.6,44.4l-1.9,1.8c-1.7,1.7-5,9.7,25.3,39.9c9.9,9.9,18.3,17.1,25,21.5c4.2,2.8,11.8,6.9,14.9,3.8l1.9-1.9
		c10.4-10.5,19.3-19.6,44.4,0.6c8.5,6.8,12.8,13.5,13,20.4c0.4,10-7.5,17.5-14.5,24.2c-1.2,1.1-2.3,2.2-3.3,3.2
		C294.7,112.4,288.9,114.2,281.6,114.2z M171.9-56.3c-7.1,0-13.5,6.7-19.2,12.7c-1.1,1.2-2.2,2.4-3.3,3.4
		c-5.4,5.4-4.9,19.7,1.4,36.4c7.8,20.6,23.2,43.1,43.5,63.4c20.3,20.3,42.8,35.7,63.4,43.5c16.7,6.3,31,6.8,36.4,1.4
		c1.1-1.1,2.2-2.2,3.4-3.3c6.1-5.8,13-12.3,12.7-19.6c-0.2-5-3.8-10.4-10.8-16c-20.9-16.8-26.7-10.9-36.4-1l-1.9,1.9
		c-4.6,4.6-12.1,3.6-22.3-3c-7.1-4.6-15.8-12.1-26-22.3c-25.1-25.1-33.1-40.5-25.3-48.3l1.9-1.9c9.8-9.7,15.8-15.5-1-36.4
		c-5.6-7-11-10.6-16-10.8C172.2-56.3,172.1-56.3,171.9-56.3z"/>
</g>
</svg>
