<?xml version="1.0" encoding="utf-8"?>
<!-- Generator: Adobe Illustrator 19.0.0, SVG Export Plug-In . SVG Version: 6.00 Build 0)  -->
<svg version="1.1" id="Layer_1" xmlns="http://www.w3.org/2000/svg" xmlns:xlink="http://www.w3.org/1999/xlink" x="0px" y="0px"
	 viewBox="100 -100 250 250" style="enable-background:new 100 -100 250 250;" xml:space="preserve">
<style type="text/css">
	.st0{fill:#CA4A1F;}
</style>
<path d="M226-65.3c-48.2,0-87.4,39.2-87.4,87.4s39.2,87.4,87.4,87.4c10,0,19.9-1.7,29.3-5.1l47.2,8.3c0.2,0,0.5,0,0.7,0
	c1.4,0,2.7-0.7,3.5-1.9c0.8-1.2,0.9-2.6,0.4-3.9l-12.9-30.3c12.5-15.5,19.3-34.7,19.2-54.6C313.4-26.1,274.2-65.3,226-65.3z
	 M299.6,50.9c-3.2,8.2-7.8,15.7-13.5,22.4c-1,1.2-1.3,2.9-0.7,4.3l10.9,25.6l-40.8-7.1c-0.2,0-0.5,0-0.7,0c-0.5,0-1,0.1-1.5,0.2
	c-8.8,3.3-18.1,4.9-27.4,5c-43.6,0-79.1-35.5-79.1-79.1c0-43.6,35.5-79.1,79.1-79.1c43.6,0,79.1,35.5,79.1,79.1
	C305.1,32,303.2,41.8,299.6,50.9z"/>
<g>
	<path id="XMLID_221_" class="st0" d="M179.6,23.7c0,6,4.9,11,11,11c6,0,11-4.9,11-11c0-6-4.9-11-11-11
		C184.4,12.8,179.6,17.7,179.6,23.7L179.6,23.7z M195.1,23.7c0,2.6-2.1,4.7-4.7,4.7c-2.6,0-4.7-2.1-4.7-4.7c0-2.6,2.1-4.7,4.7-4.7
		C193.1,19,195.1,21.2,195.1,23.7L195.1,23.7z"/>
	<path id="XMLID_217_" class="st0" d="M236.9,23.7c0-6-4.9-11-11-11c-6,0-11,4.9-11,11c0,6,4.9,11,11,11
		C231.9,34.7,236.9,29.8,236.9,23.7L236.9,23.7z M225.9,28.5c-2.6,0-4.7-2.1-4.7-4.7c0-2.6,2.1-4.7,4.7-4.7c2.6,0,4.7,2.1,4.7,4.7
		S228.6,28.5,225.9,28.5L225.9,28.5z"/>
	<path id="XMLID_213_" class="st0" d="M272.4,23.7c0-6-4.9-11-11-11c-6,0-11,4.9-11,11c0,6,4.9,11,11,11
		C267.4,34.7,272.4,29.8,272.4,23.7L272.4,23.7z M256.6,23.7c0-2.6,2.1-4.7,4.7-4.7s4.7,2.1,4.7,4.7c0,2.6-2.1,4.7-4.7,4.7
		C258.8,28.5,256.6,26.3,256.6,23.7L256.6,23.7z"/>
</g>
</svg>
