<?xml version="1.0" encoding="utf-8"?>
<!-- Generator: Adobe Illustrator 19.0.0, SVG Export Plug-In . SVG Version: 6.00 Build 0)  -->
<svg version="1.1" id="Layer_1" xmlns="http://www.w3.org/2000/svg" xmlns:xlink="http://www.w3.org/1999/xlink" x="0px" y="0px"
	 viewBox="206 -206 511 512" style="enable-background:new 206 -206 511 512;" xml:space="preserve">
<style type="text/css">
	.st0{fill:#403D51;}
</style>
<path id="XMLID_2_" class="st0" d="M364,187.5L605.8-54.3c9.2-9.2,9.2-23.9,0-33c-9.2-9.2-23.9-9.2-33,0L331.1,154.4
	c-9.2,9.2-9.2,23.9,0,33C340.1,196.5,354.9,196.5,364,187.5z"/>
<path id="XMLID_1_" class="st0" d="M605.8,187.5c9.2-9.2,9.2-23.9,0-33L364.1-87.3c-9.2-9.2-23.9-9.2-33,0c-9.2,9.2-9.2,23.9,0,33
	L573,187.5C582,196.5,596.8,196.5,605.8,187.5z"/>
</svg>
