<?xml version="1.0" encoding="utf-8"?>
<!-- Generator: Adobe Illustrator 19.0.0, SVG Export Plug-In . SVG Version: 6.00 Build 0)  -->
<svg version="1.1" id="Layer_1" xmlns="http://www.w3.org/2000/svg" xmlns:xlink="http://www.w3.org/1999/xlink" x="0px" y="0px"
	 viewBox="-124 176 250 150" style="enable-background:new -124 176 250 150;" xml:space="preserve">
<style type="text/css">
	.st0{fill:#403D51;}
	.st1{fill:#991A21;}
</style>
<g id="XMLID_253_">
	<path id="XMLID_312_" class="st0" d="M-48.1,229.3c-0.4-0.4-1.1-0.7-1.7-0.7s-1.3,0.3-1.7,0.7c-0.4,0.4-0.7,1.1-0.7,1.7
		c0,0.6,0.3,1.3,0.7,1.7c0.4,0.4,1.1,0.7,1.7,0.7s1.3-0.3,1.7-0.7c0.4-0.4,0.7-1.1,0.7-1.7C-47.4,230.3-47.6,229.7-48.1,229.3
		L-48.1,229.3z"/>
	<path id="XMLID_303_" class="st0" d="M42.6,188.4H-6.1c-1.3,0-2.4,1.1-2.4,2.4s1.1,2.4,2.4,2.4h48.7c1.3,0,2.4,1.1,2.4,2.4v108.7
		c0,1.3-1.1,2.4-2.4,2.4H-45c-1.3,0-2.4-1.1-2.4-2.4v-64.4c0-1.3-1.1-2.4-2.4-2.4s-2.4,1.1-2.4,2.4v64.4c0,4,3.2,7.2,7.2,7.2h87.6
		c4,0,7.2-3.2,7.2-7.2V195.6C49.8,191.6,46.6,188.4,42.6,188.4L42.6,188.4z"/>
	<path id="XMLID_297_" class="st1" d="M-1.2,198c-1.6,0-3.3,0.1-4.9,0.4c-1.3,0.2-2.2,1.4-2,2.7s1.4,2.2,2.7,2
		c1.4-0.2,2.8-0.3,4.2-0.3c15,0,27.2,12.2,27.2,27.2c0,6.7-2.4,12.8-6.4,17.5c-1.8-3-4.2-5.7-7.1-7.7c-1.7-1.2-3.5-2.1-5.5-2.8
		c2.2-2.1,3.6-5.1,3.6-8.4v-2.3c0-6.5-5.3-11.8-11.8-11.8S-13,219.8-13,226.3v2.3c0,3.3,1.4,6.3,3.6,8.4c-1.9,0.7-3.8,1.6-5.5,2.8
		c-2.9,2-5.4,4.7-7.1,7.7c-3-3.6-5.2-8-6-13c-0.2-1.3-1.5-2.2-2.8-2s-2.2,1.5-2,2.8c1.2,7.4,5.1,14.1,10.8,19
		c5.8,4.9,13.2,7.7,20.8,7.7c17.6,0,32-14.4,32-32S16.5,198-1.2,198L-1.2,198z M-8.1,226.2c0-3.8,3.1-7,7-7c3.8,0,7,3.1,7,7v2.3
		c0,3.8-3.1,7-7,7c-3.8,0-7-3.1-7-7C-8.1,228.5-8.1,226.2-8.1,226.2z M-1.2,257.2c-6.5,0-12.5-2.3-17.2-6.1
		c3.2-6.6,9.8-10.7,17.2-10.7s14,4.1,17.2,10.7C11.4,254.9,5.4,257.2-1.2,257.2L-1.2,257.2z"/>
	<path id="XMLID_292_" class="st0" d="M21,284.1h-34.2c-1.3,0-2.4,1.1-2.4,2.4s1.1,2.4,2.4,2.4H21c1.3,0,2.4-1.1,2.4-2.4
		C23.4,285.2,22.4,284.1,21,284.1L21,284.1z"/>
	<path id="XMLID_288_" class="st0" d="M-21.7,271.4c-0.4-0.4-1.1-0.7-1.7-0.7s-1.3,0.3-1.7,0.7c-0.4,0.4-0.7,1.1-0.7,1.7
		c0,0.6,0.3,1.3,0.7,1.7c0.4,0.4,1.1,0.7,1.7,0.7s1.3-0.3,1.7-0.7c0.4-0.4,0.7-1.1,0.7-1.7C-21,272.4-21.2,271.8-21.7,271.4
		L-21.7,271.4z"/>
	<path id="XMLID_284_" class="st0" d="M-21.7,284.8c-0.4-0.4-1.1-0.7-1.7-0.7s-1.3,0.3-1.7,0.7c-0.4,0.4-0.7,1.1-0.7,1.7
		s0.3,1.3,0.7,1.7c0.4,0.4,1.1,0.7,1.7,0.7s1.3-0.3,1.7-0.7c0.4-0.4,0.7-1.1,0.7-1.7C-21,285.9-21.2,285.3-21.7,284.8L-21.7,284.8z"
		/>
	<path id="XMLID_280_" class="st0" d="M21,270.7h-34.2c-1.3,0-2.4,1.1-2.4,2.4s1.1,2.4,2.4,2.4H21c1.3,0,2.4-1.1,2.4-2.4
		S22.4,270.7,21,270.7L21,270.7z"/>
	<path id="XMLID_276_" class="st1" d="M-23.9,202.3c-0.9-0.9-2.5-0.9-3.4,0l-7.8,7.8l-2.7-2.7c-0.9-0.9-2.5-0.9-3.4,0
		c-0.9,0.9-0.9,2.5,0,3.4l4.4,4.4c0.5,0.5,1.1,0.7,1.7,0.7s1.2-0.2,1.7-0.7l9.5-9.5C-22.9,204.7-22.9,203.2-23.9,202.3L-23.9,202.3z
		"/>
	<path id="XMLID_254_" class="st0" d="M-32.4,188.4c-10.9,0-19.7,8.8-19.7,19.7c0,10.9,8.8,19.7,19.7,19.7s19.7-8.8,19.7-19.7
		C-12.7,197.2-21.6,188.4-32.4,188.4L-32.4,188.4z M-32.4,223c-8.2,0-14.9-6.7-14.9-14.9c0-8.2,6.7-14.9,14.9-14.9
		s14.9,6.7,14.9,14.9C-17.5,216.3-24.2,223-32.4,223L-32.4,223z"/>
</g>
</svg>
