<?xml version="1.0" encoding="utf-8"?>
<!-- Generator: Adobe Illustrator 19.0.0, SVG Export Plug-In . SVG Version: 6.00 Build 0)  -->
<svg version="1.1" id="Layer_1" xmlns="http://www.w3.org/2000/svg" xmlns:xlink="http://www.w3.org/1999/xlink" x="0px" y="0px"
	 viewBox="-428 131 508 508" style="enable-background:new -428 131 508 508;" xml:space="preserve">
<style type="text/css">
	.st0{fill:#EBECED;stroke:#403D51;stroke-width:8;stroke-miterlimit:10;}
	.st1{fill:#EBECED;}
	.st2{fill:#991A21;}
</style>
<g>
	<path class="st0" d="M-135.4,507.9l-186.1-52.3c-3.8-1.2-5.9-5-5-8.8l64.7-230.5c1.2-3.8,5-5.9,8.8-5l185.8,52.3
		c3.8,1.2,5.9,5,5,8.8l-64.7,230.5C-127.7,506.7-131.9,508.8-135.4,507.9z"/>
	<g>
		<path class="st1" d="M-221.5,426.5c-6,0-11.1-5.1-11.1-11.1V176.1c0-6,5.1-11.1,11.1-11.1h193.2c6,0,11.1,5.1,11.1,11.1v239.5
			l0,0.2c-0.5,6.1-5.3,10.8-11.3,10.8H-221.5z"/>
		<path class="st2" d="M-28.4,169c3.8,0,7.1,3.2,7.1,7.1v239.3c-0.3,3.8-3.2,7.1-7.4,7.1h-192.9c-3.8,0-7.1-3.2-7.1-7.1V176.1
			c0-3.8,3.2-7.1,7.1-7.1H-28.4 M-28.4,161h-193.2c-8.3,0-15.1,6.8-15.1,15.1v239.3c0,8.3,6.8,15.1,15.1,15.1h192.9
			c8.1,0,14.7-6.2,15.3-14.4l0-0.3v-0.3V176.1C-13.3,167.8-20,161-28.4,161L-28.4,161z"/>
	</g>
</g>
</svg>
