<?xml version="1.0" encoding="utf-8"?>
<!-- Generator: Adobe Illustrator 19.0.0, SVG Export Plug-In . SVG Version: 6.00 Build 0)  -->
<svg version="1.1" id="Capa_1" xmlns="http://www.w3.org/2000/svg" xmlns:xlink="http://www.w3.org/1999/xlink" x="0px" y="0px"
	 viewBox="-49 50.2 400.8 400.8" style="enable-background:new -49 50.2 400.8 400.8;" xml:space="preserve">
<style type="text/css">
	.st0{fill:#403D51;}
	.st1{fill:#FFFFFF;}
	.st2{fill:#991A21;}
</style>
<g>
	<g>
		<path class="st0" d="M42.7,384.9c-2.1,1.9-5.4,0.4-5.4-2.4v-49.4c0-0.7-0.3-1.3-0.9-1.6c-23.6-16-37-39.1-36.9-63.2
			c0-32,23.9-61.7,60.8-75.7l2.2-0.8c2-0.7,4.1,0.6,4.3,2.7l0.2,2.3c0.4,3.7,1,7.5,2,11.2c4.9,20.6,16,38.6,32,52.3l0.2,0.2l3.1,2.9
			c0.1,0.1,0.1,0.1,0.2,0.2c19.3,16.2,42.6,26.6,67.5,30.1l6.9,1l3.1,0.4c3.4,0.6,6.9,0.9,10.4,0.9h10.1c2.5,0,4,2.7,2.8,4.9
			l-1.6,2.7C186,333,147.9,352,106.5,352c-8.2,0-16.4-0.8-24.5-2.2c-0.6-0.1-1.2,0.1-1.7,0.5L42.7,384.9z M58.9,208.3
			c-0.5-2-2.7-3.1-4.6-2.2c-27.5,13.6-44.8,37.2-44.8,62.2c-0.1,20.8,11.7,40.8,32.5,54.9c3.3,2.2,5.2,5.9,5.2,9.9v32.5
			c0,0.6,0.7,0.9,1.1,0.5l25.2-23.1c2.7-2.5,6.6-3.6,10.2-3c7.5,1.4,15.1,2.1,22.7,2.1c31.6,0,61-11.9,79.1-31.2
			c1.8-1.9,0.6-5-1.9-5.4c-1.1-0.1-2.2-0.3-3.3-0.5l-2.9-0.4l-6.9-1c-26.8-3.8-52-15-72.7-32.5l-0.2-0.2l-3.2-3
			c-17.6-15.1-29.7-34.9-35.1-57.5C59.2,209.6,59,209,58.9,208.3z"/>
	</g>
</g>
<g>
	<g>
		<g>
			<path class="st1" d="M182.7,108.8c-69.4,0-125.8,43.8-125.8,97.7s56.5,97.7,126,97.7c9.7,0,19.4-0.9,29-2.6h1.2
				c1.7,0,3.4,0.6,4.7,1.8l44.9,41.1v-58.9c0-2.3,1.1-4.5,3.1-5.8c26.9-18.6,42.9-45.4,42.9-73.4
				C308.6,152.6,252.1,108.8,182.7,108.8z"/>
			<path class="st2" d="M267.7,348.2c0,2.9-3.5,4.5-5.7,2.5l-47.7-43.6c-0.3-0.3-0.8-0.5-1.3-0.5h-0.8c-9.7,1.7-19.6,2.6-29.4,2.6
				c-72.2,0-131-46.1-131-102.7c0-56.6,58.7-102.7,130.8-102.7c72.2,0,131,46.1,131,102.7c0,29.5-16.4,57.7-45,77.5
				c-0.6,0.4-0.9,1-0.9,1.6V348.2z M213.2,296.6c2.9,0,5.8,1.1,8,3.1l34.5,31.6c0.8,0.7,2.1,0.2,2.1-0.9v-44.7c0-4,2-7.7,5.3-9.9
				c25.8-17.8,40.7-43.1,40.7-69.2c0-51.1-54.3-92.7-121-92.7c-66.6,0-120.8,41.6-120.8,92.7s54.3,92.7,121,92.7
				c9.4,0,18.8-0.9,28.1-2.6l0.4-0.1H213.2C213.1,296.6,213.1,296.6,213.2,296.6z"/>
		</g>
	</g>
</g>
</svg>
