<?xml version="1.0" encoding="utf-8"?>
<!-- Generator: Adobe Illustrator 19.0.0, SVG Export Plug-In . SVG Version: 6.00 Build 0)  -->
<svg version="1.1" id="Layer_1" xmlns="http://www.w3.org/2000/svg" xmlns:xlink="http://www.w3.org/1999/xlink" x="0px" y="0px"
	 viewBox="-426 129 512 512" style="enable-background:new -426 129 512 512;" xml:space="preserve">
<style type="text/css">
	.st0{fill:#991A21;}
</style>
<path class="st0" d="M86,343.6L-128.6,129l-221.4,221.4l-53.3,53.3c-14.5,14.5-22.5,33.8-22.5,54.4s8,39.8,22.5,54.4l63.4,63.4h-86
	v30H85.6v-30h-231.9L86,343.6z M-128.6,171.4L43.6,343.6l-179,179l-172.2-172.2L-128.6,171.4z M-297.6,575.9l-84.6-84.6
	c-8.9-8.9-13.7-20.6-13.7-33.2s4.9-24.3,13.7-33.2l53.3-53.3l172.2,172.2l-32.1,32.1H-297.6z"/>
</svg>
