<?xml version="1.0" encoding="utf-8"?>
<!-- Generator: Adobe Illustrator 19.0.0, SVG Export Plug-In . SVG Version: 6.00 Build 0)  -->
<svg version="1.1" id="Layer_1" xmlns="http://www.w3.org/2000/svg" xmlns:xlink="http://www.w3.org/1999/xlink" x="0px" y="0px"
	 viewBox="-124 176 250 150" style="enable-background:new -124 176 250 150;" xml:space="preserve">
<style type="text/css">
	.st0{fill:#403D51;}
	.st1{fill:#991A21;}
</style>
<g id="XMLID_290_">
	<g id="XMLID_215_">
		<path id="XMLID_242_" class="st0" d="M1.1,273.7c-0.4-0.4-1-0.7-1.6-0.7s-1.2,0.2-1.6,0.7c-0.4,0.4-0.7,1-0.7,1.6
			c0,0.6,0.2,1.2,0.7,1.6c0.4,0.4,1,0.7,1.6,0.7s1.2-0.2,1.6-0.7c0.4-0.4,0.7-1,0.7-1.6C1.8,274.7,1.5,274.1,1.1,273.7L1.1,273.7z"
			/>
		<path id="XMLID_234_" class="st0" d="M45.8,204H32.2v-7.8c0-2.5-2.1-4.6-4.6-4.6h-56.2c-2.5,0-4.6,2.1-4.6,4.6v7.8h-13.7
			c-3.5,0-6.4,2.9-6.4,6.4v68.3c0,3.5,2.9,6.4,6.4,6.4h35v10.6c-5.8,0.6-10.4,5.5-10.4,11.5c0,1.3,1,2.3,2.3,2.3h38.7
			c1.3,0,2.3-1,2.3-2.3c0-6-4.5-10.9-10.4-11.5V285h35c3.5,0,6.4-2.9,6.4-6.4v-68.2C52.2,206.8,49.3,204,45.8,204L45.8,204z
			 M-48.7,210.4c0-1,0.8-1.8,1.8-1.8h13.6V224c0,1.3,1,2.3,2.3,2.3s2.3-1,2.3-2.3v-27.9h56.2v69.5h-56.1v-25c0-1.3-1-2.3-2.3-2.3
			s-2.3,1-2.3,2.3v25h-15.5V210.4z M16.1,304.8h-33.3c1-2.7,3.5-4.6,6.5-4.6H9.5C12.6,300.2,15.1,302.1,16.1,304.8L16.1,304.8z
			 M-7.2,295.6V285H6.2v10.6H-7.2z M47.6,278.6c0,1-0.8,1.8-1.8,1.8h-92.7c-1,0-1.8-0.8-1.8-1.8v-8.3h96.2v8.3H47.6z M47.6,265.7
			H32.2v-57.1h13.6c1,0,1.8,0.8,1.8,1.8L47.6,265.7L47.6,265.7z"/>
		<path id="XMLID_228_" class="st0" d="M-0.6,200.7c-9.4,0-17,7.6-17,17c0,4.8,2,9.2,5.3,12.3c0.1,0.1,0.2,0.2,0.3,0.3
			c3,2.8,7.1,4.5,11.5,4.5s8.4-1.7,11.5-4.5c0.1-0.1,0.2-0.2,0.3-0.3c3.3-3.1,5.3-7.5,5.3-12.3C16.5,208.4,8.8,200.7-0.6,200.7
			L-0.6,200.7z M-0.6,230.2c-2.7,0-5.1-0.8-7.1-2.3c1.5-2.4,4.2-3.9,7.1-3.9s5.6,1.5,7.1,3.9C4.6,229.4,2.1,230.2-0.6,230.2
			L-0.6,230.2z M-2.9,217.1v-1.2c0-1.3,1.1-2.4,2.4-2.4s2.4,1.1,2.4,2.4v1.2c0,1.3-1.1,2.4-2.4,2.4C-1.9,219.4-2.9,218.4-2.9,217.1
			L-2.9,217.1z M9.9,224.6c-1.2-1.6-2.8-2.9-4.5-3.8c0.7-1.1,1.1-2.4,1.1-3.7v-1.2c0-3.8-3.1-7-7-7c-3.8,0-7,3.1-7,7v1.2
			c0,1.4,0.4,2.7,1.1,3.7c-1.8,0.9-3.3,2.2-4.5,3.8c-1.3-2-2-4.3-2-6.8c0-6.9,5.6-12.4,12.4-12.4c6.9,0,12.4,5.6,12.4,12.4
			C11.9,220.3,11.1,222.6,9.9,224.6L9.9,224.6z"/>
		<path id="XMLID_225_" class="st0" d="M-29.3,230.2c-0.4-0.4-1-0.7-1.6-0.7s-1.2,0.2-1.6,0.7c-0.4,0.4-0.7,1-0.7,1.6
			c0,0.6,0.2,1.2,0.7,1.6c0.4,0.4,1,0.7,1.6,0.7s1.2-0.2,1.6-0.7c0.4-0.4,0.7-1,0.7-1.6C-28.6,231.2-28.9,230.6-29.3,230.2
			L-29.3,230.2z"/>
		<path id="XMLID_222_" class="st1" d="M13.7,240.3H-13c-1.3,0-2.3,1-2.3,2.3s1,2.3,2.3,2.3h26.7c1.3,0,2.3-1,2.3-2.3
			C16,241.4,15,240.3,13.7,240.3L13.7,240.3z"/>
		<path id="XMLID_219_" class="st1" d="M15.4,251.2c-0.4-0.4-1-0.7-1.6-0.7s-1.2,0.2-1.6,0.7c-0.4,0.4-0.7,1-0.7,1.6
			c0,0.6,0.2,1.2,0.7,1.6c0.4,0.4,1,0.7,1.6,0.7s1.2-0.2,1.6-0.7c0.4-0.4,0.7-1,0.7-1.6C16,252.2,15.8,251.6,15.4,251.2L15.4,251.2z
			"/>
		<path id="XMLID_216_" class="st1" d="M4.9,250.5H-13c-1.3,0-2.3,1-2.3,2.3s1,2.3,2.3,2.3H4.9c1.3,0,2.3-1,2.3-2.3
			S6.2,250.5,4.9,250.5L4.9,250.5z"/>
	</g>
</g>
</svg>
