<?xml version="1.0" encoding="utf-8"?>
<!-- Generator: Adobe Illustrator 19.0.0, SVG Export Plug-In . SVG Version: 6.00 Build 0)  -->
<svg version="1.1" id="Layer_1" xmlns="http://www.w3.org/2000/svg" xmlns:xlink="http://www.w3.org/1999/xlink" x="0px" y="0px"
	 viewBox="0 0 250 250" style="enable-background:new 0 0 250 250;" xml:space="preserve">
<style type="text/css">
	.st0{fill:#595959;}
</style>
<g id="XMLID_136_">
	<g id="XMLID_137_">
		<g>
			<path id="XMLID_139_" class="st0" d="M134.9,205.4h-27.5c-4.6,0-8.3-3.7-8.3-8.3v-62H83c-4.6,0-8.3-3.7-8.3-8.3v-26.6
				c0-4.6,3.7-8.3,8.3-8.3h16V78.4c0-13.2,4.1-24.4,12-32.5s18.9-12.4,31.8-12.4h21c4.6,0,8.3,3.7,8.3,8.3v24.7
				c0,4.6-3.7,8.3-8.3,8.3h-14.1c-4.3,0-5.4,0.9-5.6,1.1c-0.4,0.4-0.8,1.7-0.8,5.1v10.5h19.6c1.5,0,2.9,0.4,4.1,1
				c2.6,1.5,4.3,4.3,4.3,7.3v26.6c0,4.6-3.7,8.3-8.3,8.3h-19.6v62C143.2,201.6,139.5,205.4,134.9,205.4L134.9,205.4z M109.1,195.3
				h24v-64.8c0-3.1,2.5-5.6,5.6-5.6h22.4v-23.1h-22.4c-3.1,0-5.6-2.5-5.6-5.6v-15c0-3.9,0.4-8.4,3.4-11.8c3.6-4.1,9.2-4.5,13.2-4.5
				h12.4V43.7h-19.2c-20.8,0-33.7,13.3-33.7,34.8v17.8c0,3.1-2.5,5.6-5.6,5.6H84.7V125h18.8c3.1,0,5.6,2.5,5.6,5.6V195.3z
				 M163.8,43.7L163.8,43.7L163.8,43.7z"/>
		</g>
	</g>
</g>
</svg>
