<svg height="511pt" viewBox="-26 1 511 511.999" width="511pt" xmlns="http://www.w3.org/2000/svg"><path fill="#FFFFFF" d="m460.3125 408.167969v-12.84375c0-20.410157-16.609375-37.015625-37.019531-37.015625h-1.246094c-41.128906-42.464844-65.371094-97.746094-68.773437-156.667969 35.730468-5.21875 63.214843-31.875 70.910156-65.207031.933594-4.050782-1.59375-8.09375-5.644532-9.03125-4.058593-.941406-8.097656 1.589844-9.035156 5.644531-7.449218 32.269531-35.820312 54.4375-68.492187 54.4375-38.773438 0-70.320313-31.542969-70.320313-70.316406 0-38.449219 31.261719-70.316407 70.320313-70.316407 32.929687 0 61.09375 22.386719 68.492187 54.4375.9375 4.050782 4.976563 6.582032 9.035156 5.644532 4.050782-.9375 6.578126-4.980469 5.644532-9.035156-8.820313-38.210938-43.066406-66.113282-83.171875-66.113282-24.40625 0-46.433594 10.308594-62.011719 26.78125-6.527344-2.886718-13.238281-5.175781-20.105469-6.839844v-28.910156c0-12.582031-10.234375-22.816406-22.816406-22.816406h-11.347656c-12.578125 0-22.8125 10.234375-22.8125 22.816406v28.84375c-52.949219 12.554688-93.945313 60.328125-93.945313 119.117188v16.601562c0 64.277344-24.5625 124.847656-69.210937 170.929688h-1.246094c-20.410156 0-37.015625 16.605468-37.015625 37.015625v12.84375c0 20.410156 16.605469 37.015625 37.015625 37.015625h115.53125c3.667969 31.515625 26.464844 58.246094 57.5625 66.398437 4.015625 1.050781 8.140625-1.351562 9.195313-5.378906 1.054687-4.019531-1.351563-8.136719-5.378907-9.191406-24.507812-6.425781-42.632812-27.164063-46.207031-51.828125h124.371094c-3.589844 24.910156-21.941406 45.714844-46.765625 51.980468-4.035157 1.015626-6.476563 5.109376-5.460938 9.144532.859375 3.414062 3.929688 5.691406 7.296875 5.691406.609375 0 1.230469-.074219 1.847656-.230469 31.492188-7.945312 54.574219-34.761719 58.257813-66.585937h115.527344c20.410156.003906 37.019531-16.605469 37.019531-37.015625zm-243.332031-385.351563c0-4.273437 3.476562-7.753906 7.75-7.753906h11.347656c4.273437 0 7.753906 3.480469 7.753906 7.753906v26.273438c-4.5-.496094-9.015625-.746094-13.449219-.746094-4.375 0-8.933593.246094-13.402343.730469zm-157.753907 335.492188c39.949219-45.972656 63.808594-106.308594 63.808594-170.929688v-16.601562c0-60.003906 49.046875-108.351563 109.210938-107.351563 12.585937.210938 25.34375 2.726563 37.058594 7.394531-8.613282 13.332032-13.675782 29.511719-13.675782 46.347657 0 46.160156 36.894532 83.863281 82.59375 85.335937 3.335938 57.792969 25.558594 112.296875 63.363282 155.804688zm386.019532 49.859375c0 12.105469-9.847656 21.953125-21.953125 21.953125-8.328125 0-378.96875 0-385.777344 0-12.105469 0-21.953125-9.847656-21.953125-21.953125v-12.84375c0-12.105469 9.851562-21.953125 21.953125-21.953125h385.777344c12.105469 0 21.953125 9.851562 21.953125 21.953125zm0 0"/><path fill="#FFFFFF" d="m341.011719 160.894531c4.160156 0 7.53125-3.375 7.53125-7.53125v-64.394531c0-4.160156-3.371094-7.53125-7.53125-7.53125h-8.359375c-4.160156 0-7.53125 3.371094-7.53125 7.53125s3.371094 7.53125 7.53125 7.53125h.828125v56.863281c0 4.15625 3.371093 7.53125 7.53125 7.53125zm0 0"/></svg>