<?xml version="1.0" encoding="utf-8"?>
<!-- Generator: Adobe Illustrator 19.0.0, SVG Export Plug-In . SVG Version: 6.00 Build 0)  -->
<svg version="1.1" id="Layer_1" xmlns="http://www.w3.org/2000/svg" xmlns:xlink="http://www.w3.org/1999/xlink" x="0px" y="0px"
	 viewBox="12.1 16.7 108.1 52.3" style="enable-background:new 12.1 16.7 108.1 52.3;" xml:space="preserve">
<style type="text/css">
	.st0{fill:#FFFFFF;}
</style>
<path id="XMLID_14_" class="st0" d="M86.1,24.1H46.6C36.3,24.1,28,32.4,28,42.7v16.8c0,1,0.8,1.8,1.8,1.8h56.4
	c10.3,0,18.6-8.3,18.6-18.6l0,0C104.7,32.5,96.4,24.1,86.1,24.1z M85.1,27.2c8.4,0,15.3,6.9,15.3,15.3s-6.9,15.3-15.3,15.3
	S69.8,51,69.8,42.5S76.6,27.2,85.1,27.2z M46.9,27.2c8.4,0,15.3,6.9,15.3,15.3s-6.9,15.3-15.3,15.3S31.6,51,31.6,42.5
	S38.4,27.2,46.9,27.2z M46.9,40.1c1.4,0,2.6,1.2,2.6,2.6s-1.2,2.6-2.6,2.6s-2.6-1.2-2.6-2.6S45.4,40.1,46.9,40.1z M85.1,39.9
	c1.4,0,2.6,1.2,2.6,2.6s-1.2,2.6-2.6,2.6s-2.6-1.2-2.6-2.6S83.6,39.9,85.1,39.9z"/>
</svg>
