<?xml version="1.0" encoding="utf-8"?>
<!-- Generator: Adobe Illustrator 19.0.0, SVG Export Plug-In . SVG Version: 6.00 Build 0)  -->
<svg version="1.1" id="Layer_1" xmlns="http://www.w3.org/2000/svg" xmlns:xlink="http://www.w3.org/1999/xlink" x="0px" y="0px"
	 viewBox="166 11.6 431 78.4" style="enable-background:new 166 11.6 431 78.4;" xml:space="preserve">
<style type="text/css">
	.st0{fill:#403D51;}
	.st1{fill:#991A21;}
	.st2{fill:#FFFFFF;}
</style>
<g id="XMLID_21_">
	<path id="XMLID_22_" class="st0" d="M336,42.1l0.3,3.1l0.1,35c0,1.2-0.5,1.7-1.3,1.7h-7.9c-0.9,0-1.3-0.6-1.3-1.7V21.6
		c0.1-1.1,0.6-1.6,1.3-1.6h11.8c0.6,0,0.8,0.1,1,0.4c0.2,0.3,0.3,0.6,0.5,1.2L348,55l7.6-33.3c0.2-0.6,0.3-0.9,0.5-1.2
		c0.2-0.3,0.5-0.4,1-0.4h11.8c0.8,0,1.3,0.6,1.3,1.6v58.5c0,1.2-0.5,1.7-1.3,1.7H361c-1,0-1.4-0.6-1.3-1.7l0.1-35l0.3-3.1v0.4
		l-8.3,37.7c-0.2,0.6-0.3,1-0.5,1.3c-0.2,0.3-0.6,0.4-1,0.4h-4.7c-0.5,0-0.8-0.1-1-0.4c-0.2-0.3-0.4-0.6-0.5-1.3l-8.2-37.7L336,42.1
		z"/>
	<path id="XMLID_24_" class="st0" d="M380.7,21.7c0-0.6,0.2-1,0.5-1.3c0.3-0.3,0.7-0.5,1.3-0.5H407c0.5,0,0.7,0.1,1,0.4
		c0.3,0.3,0.4,0.7,0.4,1.3V29c0,0.6-0.1,0.9-0.4,1.2s-0.6,0.4-1,0.4h-15.2v14.7h11.8c0.5,0,0.8,0.1,1.1,0.4c0.3,0.3,0.5,0.7,0.5,1.3
		v7.4c0,0.6-0.1,1-0.4,1.3s-0.6,0.4-1.1,0.4h-11.8v15.5h15.4c0.4,0,0.7,0.1,1,0.4s0.4,0.6,0.4,1.2v7.4c0,0.6-0.1,1-0.4,1.3
		c-0.3,0.3-0.6,0.4-1,0.4h-24.9c-1.1,0-1.6-0.6-1.6-1.7L380.7,21.7L380.7,21.7z"/>
	<path id="XMLID_26_" class="st0" d="M413.3,21.7c0-0.6,0.1-1,0.4-1.3c0.3-0.3,0.6-0.5,1-0.5h29.1c0.4,0,0.7,0.2,1,0.5
		c0.3,0.3,0.4,0.7,0.4,1.3v7.4c0,0.6-0.1,1-0.4,1.3s-0.6,0.4-1,0.4h-9v49.6c0,0.6-0.1,1-0.4,1.3s-0.6,0.4-1,0.4H425
		c-0.4,0-0.7-0.1-1-0.4c-0.3-0.3-0.4-0.7-0.4-1.3V30.7h-9c-0.4,0-0.7-0.1-1-0.4c-0.3-0.3-0.4-0.6-0.4-1.3L413.3,21.7L413.3,21.7z"/>
	<path id="XMLID_28_" class="st0" d="M452.1,21.7c0-0.6,0.2-1,0.5-1.3c0.3-0.3,0.7-0.5,1.3-0.5H469c2.4,0,4.5,0.5,6.5,1.3
		c2,0.9,3.7,2,5.2,3.5c1.5,1.5,2.6,3.1,3.5,5.1c0.8,1.9,1.3,3.9,1.3,6.3v7.6c0,2.9-0.6,5.5-1.7,7.6c-1.2,2.1-2.6,3.8-4.3,5.2
		l6.7,23.6c0.1,0.5,0.1,0.8-0.1,1.2c-0.2,0.4-0.6,0.6-0.9,0.6h-8.7c-0.5,0-0.8-0.1-1-0.3c-0.2-0.2-0.4-0.6-0.5-1.2l-4.9-20.3
		c-0.3,0-0.5,0-0.7,0s-0.5,0-0.7,0h-5.1v20c0,1.2-0.6,1.7-1.6,1.7h-8c-1.1,0-1.6-0.6-1.6-1.7V21.6L452.1,21.7L452.1,21.7z
		 M463.3,30.7v19h5.6c1.7,0,2.9-0.6,3.8-1.6c1-1.1,1.4-2.4,1.4-3.8v-8.1c0-1.7-0.6-2.9-1.5-3.9c-1-1-2.3-1.5-3.8-1.5
		C468.7,30.7,463.3,30.7,463.3,30.7z"/>
	<path id="XMLID_31_" class="st0" d="M494.5,21.7c0-0.6,0.2-1,0.5-1.3c0.3-0.3,0.7-0.5,1.3-0.5h7.9c0.6,0,1,0.2,1.3,0.5
		c0.3,0.3,0.4,0.7,0.4,1.3v58.4c0,1.2-0.6,1.7-1.6,1.7h-7.9c-1.1,0-1.6-0.6-1.6-1.7L494.5,21.7L494.5,21.7z"/>
	<path id="XMLID_33_" class="st0" d="M516.2,28.4c0.8-1.9,1.9-3.6,3.4-5c1.5-1.4,3.2-2.5,5.3-3.2c2.1-0.8,4.3-1.2,6.8-1.2
		c2.7,0,5.2,0.5,7.2,1.3c2,0.9,3.7,2.1,5,3.6c1.3,1.5,2.3,3.1,2.9,5c0.6,1.9,1,3.8,1,5.8v4.2c0,0.7-0.1,1.3-0.3,1.5
		c-0.2,0.2-0.6,0.5-1.2,0.5h-8.1c-0.6,0-1-0.1-1.2-0.4c-0.2-0.3-0.3-0.7-0.3-1.3v-4c0-0.7-0.1-1.4-0.4-2c-0.3-0.6-0.6-1.3-1.1-1.7
		c-0.5-0.6-1.1-1-1.7-1.3c-0.7-0.4-1.4-0.5-2.2-0.5c-0.9,0-1.6,0.2-2.3,0.5c-0.7,0.3-1.3,0.7-1.7,1.2c-0.5,0.6-0.9,1.1-1.2,1.7
		c-0.3,0.6-0.4,1.3-0.4,2.1v31.7c0,0.7,0.1,1.4,0.4,2.1c0.3,0.7,0.6,1.3,1.2,1.7c0.6,0.6,1.1,1,1.7,1.3c0.7,0.3,1.5,0.5,2.3,0.5
		c0.9,0,1.6-0.2,2.3-0.5c0.7-0.3,1.3-0.7,1.7-1.3c0.5-0.6,0.8-1.2,1.1-1.7c0.3-0.7,0.4-1.4,0.4-2.1v-5.3c0-0.7,0.1-1.2,0.4-1.4
		c0.2-0.3,0.6-0.4,1.1-0.4h8.1c0.6,0,1,0.1,1.2,0.4c0.3,0.2,0.4,0.7,0.4,1.3v6.1c0,2.5-0.5,4.6-1.3,6.5c-0.9,1.9-2,3.6-3.5,4.9
		c-1.5,1.3-3.2,2.4-5.2,3c-2,0.7-4,1.1-6.4,1.1c-2.3,0-4.4-0.4-6.4-1.1c-2-0.7-3.8-1.7-5.3-3c-1.5-1.3-2.7-2.9-3.6-4.9
		c-0.9-1.9-1.3-4-1.3-6.5V34.7C515.1,32.4,515.5,30.4,516.2,28.4z"/>
	<path id="XMLID_35_" class="st0" d="M555.9,64.6c0-0.8,0.1-1.3,0.3-1.7s0.6-0.6,1.3-0.6h7.9c0.7,0,1.2,0.2,1.3,0.5
		c0.2,0.3,0.3,0.8,0.3,1.4v2c0,1.2,0.2,2.1,0.6,2.8s0.8,1.4,1.4,1.8c0.6,0.5,1.3,0.8,1.8,1c0.7,0.2,1.3,0.3,1.8,0.3
		c0.7,0,1.4-0.1,2.1-0.4c0.7-0.3,1.3-0.6,1.8-1.2c0.6-0.5,1-1.1,1.3-1.7c0.3-0.6,0.5-1.4,0.5-2.3c0-1.2-0.2-2.1-0.5-2.9
		c-0.3-0.9-0.7-1.7-1.3-2.5c-0.7-0.9-1.4-1.7-2.5-2.5c-1-0.9-2.2-1.9-3.6-3c-2.4-1.9-4.4-3.6-6.3-5c-1.8-1.4-3.3-2.8-4.5-4.3
		s-2.2-3.1-2.7-4.9c-0.6-1.7-1-3.8-1-6.5c0-1.9,0.3-3.7,0.8-5.2c0.6-1.6,1.3-2.8,2-4c0.9-1.3,1.8-2.2,2.9-3s2.3-1.6,3.5-2.1
		c1.3-0.6,2.4-1,3.6-1.3c1.3-0.3,2.4-0.4,3.4-0.4c2.4,0,4.5,0.4,6.5,1.2c2,0.8,3.7,1.9,5.1,3.3c1.4,1.4,2.5,3.1,3.3,5.1
		s1.3,4.2,1.3,6.7v2.6c0,0.7-0.1,1.2-0.4,1.3c-0.3,0.2-0.7,0.4-1.5,0.4h-7.6c-0.6,0-1-0.1-1.2-0.4c-0.2-0.3-0.3-0.7-0.3-1.3v-2.5
		c0-0.8-0.1-1.5-0.4-2.2s-0.6-1.3-1-1.8c-0.5-0.6-1-1-1.6-1.3s-1.4-0.5-2.2-0.5c-0.6,0-1.3,0.1-1.8,0.3c-0.6,0.2-1.3,0.6-1.7,1
		c-0.6,0.5-1,1.1-1.3,1.7c-0.4,0.7-0.5,1.6-0.5,2.6c0,1.2,0.2,2.1,0.5,2.8c0.3,0.8,0.7,1.6,1.3,2.4c0.6,0.7,1.3,1.4,2,2.1
		c0.8,0.7,1.7,1.4,2.7,2.1c2.2,1.7,4.1,3.2,6.1,4.7c1.9,1.5,3.6,3.1,5,4.9c1.4,1.8,2.5,3.7,3.4,5.8c0.8,2.1,1.3,4.6,1.3,7.4
		c0,2.1-0.5,4-1.3,6c-0.8,1.8-1.9,3.5-3.4,4.9c-1.5,1.4-3.2,2.5-5.3,3.4c-2.1,0.9-4.3,1.3-7,1.3c-2.7,0-5.1-0.5-7.2-1.3
		c-2.1-0.9-3.7-2.1-5.1-3.6c-1.4-1.5-2.5-3.2-3.1-5.1c-0.7-1.9-1.1-3.9-1.1-6.1L555.9,64.6L555.9,64.6z"/>
</g>
<g id="XMLID_1_">
	<path id="XMLID_6_" class="st1" d="M276.3,17.8h-69.7c-18.1,0-32.7,14.7-32.7,32.7v32.8h102.4c18.1,0,32.7-14.7,32.7-32.7l0,0
		C309,32.5,294.3,17.8,276.3,17.8z"/>
	<circle id="XMLID_5_" class="st2" cx="274.4" cy="50.2" r="27"/>
	<circle id="XMLID_4_" class="st2" cx="207.1" cy="50.2" r="27"/>
	<circle id="XMLID_3_" class="st0" cx="207.1" cy="50.6" r="4.6"/>
	<circle id="XMLID_2_" class="st0" cx="274.4" cy="50.2" r="4.6"/>
</g>
</svg>
