<?xml version="1.0" encoding="utf-8"?>
<!-- Generator: Adobe Illustrator 19.0.0, SVG Export Plug-In . SVG Version: 6.00 Build 0)  -->
<svg version="1.1" id="Layer_1" xmlns="http://www.w3.org/2000/svg" xmlns:xlink="http://www.w3.org/1999/xlink" x="0px" y="0px"
	 viewBox="0 0 50 50" style="enable-background:new 0 0 50 50;" xml:space="preserve">
<style type="text/css">
	.st0{fill:#61BB46;}
</style>
<path id="XMLID_1_" class="st0" d="M30.2,17.8L17.9,29.5l-6.6-6.6c-0.5-0.5-1.3-0.5-1.8,0s-0.5,1.3,0,1.8l7.5,7.5
	c0.2,0.2,0.6,0.4,0.9,0.4c0.3,0,0.7-0.1,0.9-0.4L32,19.6c0.2-0.2,0.4-0.6,0.4-0.9c0-0.3-0.1-0.7-0.4-0.9
	C31.5,17.3,30.7,17.3,30.2,17.8z"/>
<path id="XMLID_2_" class="st0" d="M39.8,17.8L27.5,29.5l-6.6-6.6c-0.5-0.5-1.3-0.5-1.8,0c-0.5,0.5-0.5,1.3,0,1.8l7.5,7.5
	c0.2,0.2,0.6,0.4,0.9,0.4c0.3,0,0.7-0.1,0.9-0.4l13.2-12.6c0.2-0.2,0.4-0.6,0.4-0.9c0-0.3-0.1-0.7-0.4-0.9
	C41.1,17.3,40.3,17.3,39.8,17.8z"/>
</svg>
