<?xml version="1.0" encoding="utf-8"?>
<!-- Generator: Adobe Illustrator 19.0.0, SVG Export Plug-In . SVG Version: 6.00 Build 0)  -->
<svg version="1.1" id="Layer_1" xmlns="http://www.w3.org/2000/svg" xmlns:xlink="http://www.w3.org/1999/xlink" x="0px" y="0px"
	 viewBox="0 0 100 100" style="enable-background:new 0 0 100 100;" xml:space="preserve">
<style type="text/css">
	.st0{fill:#413E52;}
	.st1{fill:#9A1C23;}
	.st2{fill:#FFFFFF;}
</style>
<g id="XMLID_1_">
	<path id="XMLID_9_" class="st0" d="M72.8,37.5c0,0,2.7,0.7,5.8,3.2c4.2,3.4,7.1,8.2,8.7,14.3c0.2,0.7,0.9,1.2,1.7,1
		c0.7-0.2,1.2-0.9,1-1.7c-2.2-8.4-6.5-13.2-9.7-15.8c-3.6-2.8-6.6-3.6-6.7-3.7c-0.7-0.2-1.5,0.3-1.7,1
		C71.6,36.5,72.1,37.3,72.8,37.5z"/>
	<path id="XMLID_8_" class="st0" d="M82.9,35.4c0.2,0.1,6.1,2.1,8.3,10.5c0.2,0.7,0.9,1.2,1.7,1c0.7-0.2,1.2-0.9,1-1.7
		c-2.6-9.9-9.8-12.3-10.1-12.4C83,32.6,82.2,33,82,33.7C81.8,34.4,82.1,35.2,82.9,35.4z"/>
	<path id="XMLID_7_" class="st0" d="M20.3,38.4c0.7,0.2,1.5-0.1,1.7-0.8c2.1-5.9,5.4-10.5,9.8-13.5c3.3-2.2,6-2.7,6.1-2.8
		c0.7-0.1,1.2-0.8,1.1-1.6c-0.1-0.7-0.8-1.2-1.6-1.1c-0.1,0-3.2,0.6-7,3.1c-3.4,2.3-8.1,6.8-11,14.9C19.2,37.4,19.6,38.2,20.3,38.4z
		"/>
	<path id="XMLID_6_" class="st0" d="M17.2,29.1c0.7,0.2,1.5-0.1,1.7-0.8c2.9-8.2,8.8-9.8,9.1-9.8c0.7-0.2,1.2-0.9,1-1.6
		c-0.2-0.7-0.9-1.2-1.6-1c-0.3,0.1-7.7,1.9-11,11.6C16.1,28.1,16.5,28.9,17.2,29.1z"/>
	<path id="XMLID_5_" class="st1" d="M80,20.2H68.8v-8.7h-7.4v5h-2.5V9H49v23.1H37.8v7.8C23.6,46.8,17.7,63.8,24.6,78
		s23.9,20.1,38.1,13.3c14.2-6.8,20.1-23.9,13.3-38.1c-2.8-5.8-7.5-10.5-13.3-13.3v-7.8H51.5V11.5h5v7.4h7.4v-5h2.5v8.7H80V20.2z"/>
	<path id="XMLID_4_" class="st2" d="M52.7,64V50.8c0-1.5-1.2-2.7-2.7-2.7h0c-1.5,0-2.7,1.2-2.7,2.7v16.1c0,0.9,0.4,1.7,1.2,2.2
		l10.4,7.1c1.2,0.8,2.9,0.5,3.7-0.7l0,0c0.8-1.2,0.5-2.9-0.7-3.7l-8.1-5.5C53.1,65.7,52.7,64.9,52.7,64z"/>
</g>
</svg>
