<?xml version="1.0" encoding="utf-8"?>
<!-- Generator: Adobe Illustrator 19.0.0, SVG Export Plug-In . SVG Version: 6.00 Build 0)  -->
<svg version="1.1" id="Layer_1" xmlns="http://www.w3.org/2000/svg" xmlns:xlink="http://www.w3.org/1999/xlink" x="0px" y="0px"
	 viewBox="206 -206 511 512" style="enable-background:new 206 -206 511 512;" xml:space="preserve">
<style type="text/css">
	.st0{fill:#FFFFFF;}
	.st1{fill:#403D51;}
	.st2{fill:#991A21;}
</style>
<g>
	<path class="st0" d="M243.7,39.9c0-120.2,97.8-218,218-218S679.8-80.2,679.8,40s-97.9,218.1-218.1,218.1
		c-25.7-0.3-51.3-4.7-75.6-13.8c-1.3-0.3-2.7-0.6-4.1-0.6c-0.5,0-1.3,0-1.9,0l-112.5,19.6l30.1-70.6c1.7-3.9,0.9-8.6-1.9-11.9
		c-15.7-18.5-28.4-39.2-37.2-61.8C248.6,94,243.4,66.9,243.7,39.9z"/>
	<path class="st1" d="M220.5,39.3c-0.3,54.9,18.4,107.9,52.9,150.6l-35.6,83.5c-1.4,3.6-1.2,7.5,1.1,10.8s5.8,5.2,9.7,5.2
		c0.5,0,1.3,0,1.9,0l130.2-22.9c25.9,9.4,53.2,14.1,80.8,14.1c132.9,0,241-108.1,241-241s-108.1-241-241-241S220.5-93.3,220.5,39.3z
		 M243.7,39.9c0-120.2,97.8-218,218-218S679.8-80.2,679.8,40s-97.9,218.1-218.1,218.1c-25.7-0.3-51.3-4.7-75.6-13.8
		c-1.3-0.3-2.7-0.6-4.1-0.6c-0.5,0-1.3,0-1.9,0l-112.5,19.6l30.1-70.6c1.7-3.9,0.9-8.6-1.9-11.9c-15.7-18.5-28.4-39.2-37.2-61.8
		C248.6,94,243.4,66.9,243.7,39.9z"/>
	<path class="st2" d="M584.1-25.2c0-8.3-6.7-15-15-15H349.2c-8.3,0-15,6.7-15,15s6.7,15,15,15h219.9
		C577.4-10.2,584.1-16.9,584.1-25.2z"/>
	<path class="st2" d="M349.2,56.2h219.9c8.3,0,15-6.7,15-15s-6.7-15-15-15H349.2c-8.3,0-15,6.7-15,15
		C334.2,49.4,340.9,56.2,349.2,56.2z"/>
	<path class="st2" d="M336,107.5c0,8.3,6.7,15,15,15h78.1c8.3,0,15-6.7,15-15s-6.7-15-15-15H351C342.7,92.5,336,99.3,336,107.5z"/>
</g>
</svg>
