<?xml version="1.0" encoding="utf-8"?>
<!-- Generator: Adobe Illustrator 19.0.0, SVG Export Plug-In . SVG Version: 6.00 Build 0)  -->
<svg version="1.1" id="Layer_1" xmlns="http://www.w3.org/2000/svg" xmlns:xlink="http://www.w3.org/1999/xlink" x="0px" y="0px"
	 viewBox="0 0 250 250" style="enable-background:new 0 0 250 250;" xml:space="preserve">
<style type="text/css">
	.st0{fill:#595959;}
</style>
<g id="XMLID_128_">
	<g id="XMLID_129_">
		<g>
			<path id="XMLID_131_" class="st0" d="M111.3,183.5c-25.1,0-44.9-4.4-54.4-12l-0.2-0.1l-0.2-0.2c-2.3-2.3-3-5.2-2-8.1l0.1-0.2
				c1.2-2.9,4-4.9,7.2-4.9c6.4-0.1,12-0.9,17.1-2.4c-8.1-3.8-13.8-10.3-17.1-19.8c-1.1-3-0.2-6.2,2.4-8.2c0.6-0.5,1.4-0.8,2.1-1.1
				c-4.5-5.2-7.8-11.1-9.7-17.4l-0.1-0.2v-0.2c-0.6-3.2,0.8-6.4,3.4-7.8c1.1-0.6,2.3-0.9,3.5-1c-1.3-2.8-2.2-5.6-2.8-8.4
				c-1.5-7.9-0.3-15.8,3.8-23.5l0.9-1.9c0.7-1.5,2.2-2.5,3.8-2.8c1.6-0.3,3.3,0.3,4.5,1.5l1.7,1.7c13.4,14.1,25.4,20.7,46.2,25.3
				c0.9-8,4.4-15.4,9.9-21.2c6.6-6.9,15.5-10.8,24.9-11h0.1c6.9,0,15.4,3.9,20.6,6.7c4.4-1.4,9.8-3.7,15.3-6.1
				c2.6-1.2,5.8-0.7,7.8,1.4c2,2,2.5,4.8,1.5,7.5c-0.4,1.1-0.9,2.2-1.4,3.3c0.8,0.3,1.4,0.8,2,1.4c1.8,1.8,2.5,4.5,1.9,7.1l-0.1,0.2
				c-2.1,6.8-6.2,12.4-11.6,15.9C191.6,144.8,155.6,183.5,111.3,183.5L111.3,183.5z M65.4,166.6c8.9,5.1,26,8.1,45.9,8.1
				c19.2,0,37.3-8.2,51-23.2c13.8-15.1,21.4-35.1,21.4-56.4v-0.2c0-1.9,1.1-3.7,2.8-4.6c3.5-1.8,6.3-5,8.1-9c-1.9,0.3-3.8-0.5-5-2
				c-1.4-1.8-1.4-4.3,0-6.1c0.7-1,1.4-2,2-3.1c-4.8,2-9.3,3.8-13.3,5c-1.4,0.4-3,0.3-4.3-0.5c-7-3.9-13.5-6.2-17.5-6.3
				C142,68.5,130.1,80.9,130.1,96c0,1.6-0.7,3-1.9,4s-2.8,1.4-4.3,1.1C100,96.4,85.8,89.3,71.1,74.5c-2.1,5.1-2.7,10.2-1.7,15.2
				c1,5.1,3.6,10.2,7.6,14.8c1.5,1.7,1.7,4.2,0.5,6.2s-3.5,2.9-5.7,2.3c-1.7-0.5-3.3-1.1-4.8-1.9c3.1,6.7,8.4,12.9,15,17.5
				c1.9,1.3,2.7,3.8,2,6c-0.8,2.2-2.9,3.6-5.3,3.5c-2.6-0.2-4.8-0.7-6.9-1.5c3.7,7.6,9.7,11.8,18.9,13.4c2.2,0.4,3.9,2.1,4.2,4.3
				c0.3,2.2-0.7,4.4-2.7,5.4C84.3,163.8,75.8,166,65.4,166.6L65.4,166.6z"/>
		</g>
	</g>
</g>
</svg>
